<svg width="572" height="89" viewBox="0 0 572 89"
    xmlns="http://www.w3.org/2000/svg">
    <path d="M6.74902 88.2759C5.01811 88.2759 3.3194 87.5714 2.08669 86.2509C0.237267 84.2705 -0.157784 81.3369 1.10126 78.9373L39.1922 6.33498C40.0504 4.69845 41.5764 3.51549 43.3754 3.09118C45.1736 2.66686 47.0676 3.04436 48.5666 4.12489L93.7195 36.6698L174.598 1.0852C177.071 -0.00265694 179.961 0.58553 181.811 2.55347C183.661 4.52141 184.071 7.44186 182.833 9.84289L146.093 81.1145C145.243 82.7642 143.716 83.961 141.911 84.3934C140.107 84.8258 138.203 84.4504 136.697 83.3655L92.1788 51.2786L9.31466 87.736C8.48798 88.0995 7.61448 88.2759 6.74902 88.2759ZM47.0706 18.7659L20.8597 68.7252L80.1766 42.6277L47.0706 18.7659ZM105.722 45.3199L138.15 68.693L163.244 20.0125L105.722 45.3207V45.3199Z" fill="url(#paint0_linear_8076_4245)"/>
    <path d="M175.434 85.7037L221.699 4.60041H239.062L256.986 85.7037H238.614L235.142 68.6765H203.664L194.142 85.7037H175.434ZM216.77 45.0401L211.393 54.6739H232.229L230.213 44.928C229.093 39.4763 227.972 33.4272 226.852 26.7806H226.628C224.537 30.888 221.251 36.9745 216.77 45.0401ZM264.533 85.7037L279.656 0.11956H296.683L281.561 85.7037H264.533ZM357.208 35.8543L348.47 85.7037H331.779L332.451 82.007L332.227 81.895C328.419 85.2557 323.9 86.936 318.673 86.936C312.474 86.936 307.359 84.7329 303.326 80.3267C299.368 75.9206 297.389 70.2075 297.389 63.1875C297.389 58.632 298.248 54.1884 299.965 49.857C301.758 45.4508 304.297 41.6421 307.583 38.4308C313.781 32.3817 321.735 29.3571 331.443 29.3571C339.509 29.3571 348.097 31.5228 357.208 35.8543ZM334.356 69.1246L338.501 45.3761C335.812 44.1065 332.937 43.4718 329.875 43.4718C325.394 43.4718 321.697 45.1894 318.785 48.6247C315.947 52.06 314.528 56.2795 314.528 61.2831C314.528 64.9425 315.424 67.855 317.217 70.0208C319.084 72.1118 321.585 73.1574 324.722 73.1574C328.083 73.1574 331.294 71.8131 334.356 69.1246ZM370.279 70.2448C370.279 68.6018 370.54 66.2121 371.063 63.0755L374.311 44.704H365.35L367.814 30.5893H376.776L379.464 15.3544L396.716 14.3463L393.803 30.5893H408.254L405.789 44.704H391.339L388.202 62.7394C387.903 64.3824 387.754 65.6893 387.754 66.6601C387.754 70.6182 389.808 72.5973 393.915 72.5973C396.38 72.5973 398.807 71.9998 401.196 70.8049L398.62 85.4797C395.932 86.4505 392.87 86.936 389.434 86.936C384.057 86.936 379.502 85.5544 375.768 82.7912C372.108 80.028 370.279 75.8459 370.279 70.2448ZM420.474 13.5621C420.474 10.6496 421.482 8.22243 423.498 6.28072C425.515 4.33903 427.979 3.36818 430.892 3.36818C433.506 3.36818 435.709 4.30169 437.501 6.1687C439.293 7.96104 440.189 10.1268 440.189 12.6659C440.189 15.5785 439.181 18.0056 437.165 19.9473C435.149 21.889 432.684 22.8599 429.772 22.8599C427.158 22.8599 424.955 21.9637 423.162 20.1714C421.37 18.3043 420.474 16.1012 420.474 13.5621ZM408.936 85.7037L418.681 30.5893H435.709L425.963 85.7037H408.936ZM441.57 61.3951C441.57 52.4334 444.632 44.816 450.755 38.5428C456.73 32.419 464.347 29.3571 473.608 29.3571C481.524 29.3571 488.058 31.6722 493.211 36.3024C498.439 40.9326 501.053 47.1311 501.053 54.8979C501.053 63.8596 497.991 71.477 491.867 77.7502C485.893 83.8741 478.275 86.936 469.015 86.936C461.099 86.936 454.527 84.6209 449.299 79.9907C444.146 75.3604 441.57 69.1619 441.57 61.3951ZM458.597 60.2749C458.597 63.8596 459.568 66.7722 461.509 69.0126C463.526 71.253 466.326 72.3732 469.911 72.3732C474.018 72.3732 477.304 70.9543 479.769 68.1164C482.607 64.8305 484.026 60.7977 484.026 56.0181C484.026 52.4334 483.017 49.5209 481.001 47.2805C479.059 45.0401 476.296 43.9198 472.712 43.9198C468.604 43.9198 465.318 45.3388 462.854 48.1766C460.016 51.4626 458.597 55.4954 458.597 60.2749ZM507.064 85.7037L516.809 30.5893H533.501L532.604 35.6303L532.828 35.7423C537.981 31.4855 543.62 29.3571 549.744 29.3571C554.971 29.3571 559.116 30.9254 562.178 34.062C565.24 37.1986 566.771 41.3434 566.771 46.4963C566.771 48.2887 566.547 50.5291 566.099 53.2176L560.386 85.7037H543.358L548.847 54.5618C549.146 52.9189 549.295 51.5746 549.295 50.5291C549.295 48.5874 548.735 47.0191 547.615 45.8242C546.495 44.6293 544.777 44.0319 542.462 44.0319C538.355 44.0319 534.397 45.5628 530.588 48.6247L524.091 85.7037H507.064Z"/>
    <defs>
        <linearGradient id="paint0_linear_8076_4245" x1="0.371097" y1="88.4124" x2="89.9281" y2="-70.5613" gradientUnits="userSpaceOnUse">
            <stop stop-color="#F47C20"/>
            <stop offset="1" stop-color="#FDA600"/>
        </linearGradient>
    </defs>
</svg>
